<svg width="270" height="49" viewBox="0 0 270 49" fill="none" xmlns="http://www.w3.org/2000/svg">
<path d="M51.2598 24.9923H12.2598C9.25977 23.9923 9.25977 18.9923 12.2598 17.4923C14.5451 16.3495 19.7598 16.9923 19.2598 21.9923" stroke="#EF272C" stroke-width="2"/>
<line y1="30.9923" x2="51.2599" y2="30.9923" stroke="#EF272C" stroke-width="2"/>
<path d="M98.0198 34.48C96.0198 34.48 95.0198 32.08 95.0198 27.28C95.0198 22.24 95.7531 16.7467 97.2198 10.8C97.0331 10.72 96.7531 10.68 96.3798 10.68C94.2731 10.68 92.5131 11.2 91.0998 12.24C90.8864 12.3733 90.6998 12.44 90.5398 12.44C89.8731 12.44 89.5398 12.1733 89.5398 11.64C89.5398 11 90.3264 10.4133 91.8998 9.88C92.8864 9.53333 93.9398 9.29333 95.0598 9.16C95.4598 9.32 95.6598 9.48 95.6598 9.64C95.6598 9.69333 95.6331 9.74667 95.5798 9.8C95.8464 9.74667 96.1798 9.70667 96.5798 9.68C97.0064 9.65333 97.5131 9.62667 98.0998 9.6C98.5798 9.04 99.1398 8.76 99.7798 8.76C100.046 8.76 100.18 8.86667 100.18 9.08C100.18 9.18667 100.14 9.32 100.06 9.48C103.366 9.56 106.913 10.36 110.7 11.88C115.473 13.7733 117.86 16.0267 117.86 18.64C117.86 21.2 116.406 23.84 113.5 26.56C111.073 28.8267 108.446 30.5333 105.62 31.68C104.26 32.2667 102.473 32.72 100.26 33.04C100.02 33.0667 99.6598 33.3067 99.1798 33.76C98.7531 34.24 98.3664 34.48 98.0198 34.48ZM98.6198 33.28C98.8064 33.28 99.0331 33.0267 99.2998 32.52C99.5931 32.04 99.8464 31.8 100.06 31.8C100.326 31.8 100.566 32.0667 100.78 32.6C102.7 32.04 104.473 31.3867 106.1 30.64C107.753 29.8933 109.246 29.0533 110.58 28.12C114.26 25.5867 116.1 22.76 116.1 19.64C116.1 17.08 113.86 14.88 109.38 13.04C105.673 11.52 102.3 10.76 99.2598 10.76C98.8864 11.6133 98.5264 12.7333 98.1798 14.12C97.8598 15.48 97.5531 17.1067 97.2598 19C96.9931 20.7067 96.7931 22.2667 96.6598 23.68C96.5264 25.0933 96.4598 26.3467 96.4598 27.44C96.4598 31.3333 97.1798 33.28 98.6198 33.28ZM120.688 32.44C118.848 32.44 117.928 31.0533 117.928 28.28C117.928 27.8267 117.942 27.3867 117.968 26.96C118.022 26.5067 118.102 26.0667 118.208 25.64C117.888 25.4267 117.728 25.2533 117.728 25.12C117.728 24.88 118.008 24.6667 118.568 24.48C118.835 23.68 119.222 22.7733 119.728 21.76C120.448 20.3733 120.995 19.68 121.368 19.68C121.795 19.68 122.115 19.8667 122.328 20.24C122.488 19.8667 122.675 19.68 122.888 19.68C123.635 19.68 124.008 20.1333 124.008 21.04C124.008 21.7333 123.875 22.3467 123.608 22.88C123.795 23.0933 123.888 23.2933 123.888 23.48C123.888 23.5333 123.848 23.5867 123.768 23.64L121.528 24.36C121.102 24.4933 120.715 24.6667 120.368 24.88C120.048 25.0933 119.755 25.32 119.488 25.56C119.195 26.44 119.048 27.3867 119.048 28.4C119.048 30.64 119.742 31.76 121.128 31.76C122.968 31.76 124.702 30.2667 126.328 27.28C126.408 27.1467 126.475 27.08 126.528 27.08C126.608 27.08 126.648 27.16 126.648 27.32C126.648 27.4533 126.608 27.6 126.528 27.76C125.888 29.04 125.115 30.0933 124.208 30.92C123.062 31.9333 121.888 32.44 120.688 32.44ZM119.968 24.16C120.235 24.08 120.542 23.9867 120.888 23.88C121.262 23.7467 121.662 23.5867 122.088 23.4C122.222 23.2933 122.395 22.96 122.608 22.4C122.795 21.92 122.888 21.5333 122.888 21.24C122.888 20.8933 122.755 20.72 122.488 20.72C122.195 20.72 121.715 21.2133 121.048 22.2C120.355 23.16 119.995 23.8133 119.968 24.16ZM128.063 34.08C127.103 34.08 126.623 32.88 126.623 30.48C126.623 30.1333 126.623 29.8 126.623 29.48C126.649 29.16 126.676 28.8267 126.703 28.48C126.996 24.72 127.223 21.6 127.383 19.12C127.543 16.64 127.623 14.7867 127.623 13.56C127.623 10.8933 127.103 9.56 126.063 9.56C125.823 9.56 125.583 9.6 125.343 9.68C125.316 9.70667 125.276 9.72 125.223 9.72C125.116 9.72 125.063 9.65333 125.063 9.52C125.063 9.33333 125.529 9.08 126.463 8.76C127.343 8.41333 127.956 8.24 128.303 8.24C128.916 8.24 129.223 8.78667 129.223 9.88C129.223 10.4667 129.183 11.2533 129.103 12.24C129.049 13.2267 128.956 14.4 128.823 15.76C128.183 22.2667 127.863 26.3867 127.863 28.12C127.863 31.2933 128.289 32.88 129.143 32.88C129.356 32.88 129.556 32.8133 129.743 32.68C129.929 32.5467 130.116 32.3733 130.303 32.16L130.903 31.48C130.983 31.48 131.023 31.56 131.023 31.72C131.023 32.0667 130.623 32.5467 129.823 33.16C129.049 33.7733 128.463 34.08 128.063 34.08ZM133.604 16.56C132.99 16.56 132.684 16.2933 132.684 15.76C132.684 15.2533 132.964 14.88 133.524 14.64L134.884 14.04C134.99 13.9867 135.07 13.96 135.124 13.96C135.31 13.96 135.404 14.08 135.404 14.32C135.404 14.4 135.23 14.6533 134.884 15.08C134.537 15.5067 134.337 15.8267 134.284 16.04C134.177 16.3867 133.95 16.56 133.604 16.56ZM134.564 32.6C133.737 32.6 133.324 31.68 133.324 29.84C133.324 29.2 133.364 28.3067 133.444 27.16C133.524 25.96 133.564 25.0533 133.564 24.44C133.564 22.6 133.07 21.68 132.084 21.68C131.977 21.68 131.817 21.7067 131.604 21.76C131.417 21.8133 131.284 21.84 131.204 21.84C131.07 21.84 131.004 21.7867 131.004 21.68C131.004 21.4667 131.457 21.2267 132.364 20.96C133.297 20.64 133.897 20.48 134.164 20.48C134.564 20.48 134.764 21.0667 134.764 22.24C134.764 22.5333 134.737 22.92 134.684 23.4C134.657 23.88 134.617 24.4267 134.564 25.04C134.51 25.6533 134.47 26.2 134.444 26.68C134.417 27.1333 134.404 27.5067 134.404 27.8C134.404 30.2533 134.804 31.48 135.604 31.48C136.217 31.48 136.884 31.0533 137.604 30.2C137.684 30.2 137.724 30.2667 137.724 30.4C137.724 30.7467 137.297 31.2 136.444 31.76C135.617 32.32 134.99 32.6 134.564 32.6ZM140.647 32.44C138.941 32.44 138.087 31.1467 138.087 28.56C138.087 27.28 138.274 26.08 138.647 24.96C138.781 24.6133 138.927 24.24 139.087 23.84C139.274 23.4133 139.501 22.9467 139.767 22.44C140.434 21.1333 140.927 20.48 141.247 20.48C141.701 20.48 142.021 20.6533 142.207 21C142.261 20.84 142.381 20.76 142.567 20.76C142.941 20.76 143.301 20.9333 143.647 21.28C143.994 21.6267 144.167 21.9867 144.167 22.36C144.167 22.76 144.007 23.16 143.687 23.56C143.367 23.9333 143.007 24.12 142.607 24.12C142.554 24.12 142.501 24.0933 142.447 24.04C143.007 23.16 143.287 22.5067 143.287 22.08C143.287 21.6 143.114 21.36 142.767 21.36C141.861 21.36 140.941 22.6267 140.007 25.16C139.394 26.8667 139.087 28.24 139.087 29.28C139.087 30.96 139.741 31.8 141.047 31.8C142.541 31.8 144.047 30.8 145.567 28.8C146.074 28.1333 146.354 27.7867 146.407 27.76C146.487 27.76 146.527 27.8133 146.527 27.92C146.527 27.9467 146.501 28.04 146.447 28.2C144.981 31.0267 143.047 32.44 140.647 32.44ZM147.862 16.56C147.248 16.56 146.942 16.2933 146.942 15.76C146.942 15.2533 147.222 14.88 147.782 14.64L149.142 14.04C149.248 13.9867 149.328 13.96 149.382 13.96C149.568 13.96 149.662 14.08 149.662 14.32C149.662 14.4 149.488 14.6533 149.142 15.08C148.795 15.5067 148.595 15.8267 148.542 16.04C148.435 16.3867 148.208 16.56 147.862 16.56ZM148.822 32.6C147.995 32.6 147.582 31.68 147.582 29.84C147.582 29.2 147.622 28.3067 147.702 27.16C147.782 25.96 147.822 25.0533 147.822 24.44C147.822 22.6 147.328 21.68 146.342 21.68C146.235 21.68 146.075 21.7067 145.862 21.76C145.675 21.8133 145.542 21.84 145.462 21.84C145.328 21.84 145.262 21.7867 145.262 21.68C145.262 21.4667 145.715 21.2267 146.622 20.96C147.555 20.64 148.155 20.48 148.422 20.48C148.822 20.48 149.022 21.0667 149.022 22.24C149.022 22.5333 148.995 22.92 148.942 23.4C148.915 23.88 148.875 24.4267 148.822 25.04C148.768 25.6533 148.728 26.2 148.702 26.68C148.675 27.1333 148.662 27.5067 148.662 27.8C148.662 30.2533 149.062 31.48 149.862 31.48C150.475 31.48 151.142 31.0533 151.862 30.2C151.942 30.2 151.982 30.2667 151.982 30.4C151.982 30.7467 151.555 31.2 150.702 31.76C149.875 32.32 149.248 32.6 148.822 32.6ZM154.465 31.92C153.212 31.92 152.585 30.6667 152.585 28.16C152.585 27.2267 152.665 26.2933 152.825 25.36C152.985 24.4267 153.212 23.4933 153.505 22.56C153.745 21.8133 154.158 21.1733 154.745 20.64C155.358 20.08 156.038 19.8 156.785 19.8C157.052 19.8 157.198 19.8533 157.225 19.96C157.172 20.0667 157.105 20.0933 157.025 20.04C155.958 20.3067 155.158 21.4 154.625 23.32C154.438 24.0133 154.292 24.7333 154.185 25.48C154.105 26.2267 154.065 27 154.065 27.8C154.065 29.7467 154.385 30.72 155.025 30.72C155.905 30.72 156.585 29.76 157.065 27.84C157.385 26.5067 157.545 25.16 157.545 23.8C157.545 22.92 157.398 22.2533 157.105 21.8C156.812 21.32 156.665 21.12 156.665 21.2C156.665 20.9867 156.812 20.88 157.105 20.88C157.905 20.88 158.305 21.88 158.305 23.88C158.305 25.4 158.012 26.9867 157.425 28.64C156.678 30.8267 155.692 31.92 154.465 31.92ZM160.291 31.84C159.784 31.84 159.531 31.2133 159.531 29.96C159.531 29.4 159.597 28.6667 159.731 27.76C159.864 26.8267 160.064 25.72 160.331 24.44C160.224 24.2 160.171 23.8933 160.171 23.52C160.171 22.16 160.757 21.2933 161.931 20.92C162.037 20.9467 162.091 21.08 162.091 21.32C162.091 21.5067 161.877 22.36 161.451 23.88C160.971 25.5867 160.731 27.16 160.731 28.6C160.731 29.72 160.944 30.28 161.371 30.28C162.091 30.28 163.091 29.0267 164.371 26.52C165.464 24.3867 166.144 22.7467 166.411 21.6C166.571 20.9867 166.957 20.68 167.571 20.68C167.891 20.68 168.051 20.8 168.051 21.04C168.051 21.1733 167.957 21.4 167.771 21.72C167.611 22.04 167.517 22.2533 167.491 22.36C167.091 24.1467 166.891 25.8667 166.891 27.52C166.891 29.44 167.331 30.4 168.211 30.4C168.691 30.4 169.291 29.88 170.011 28.84C170.731 27.7733 171.104 27.24 171.131 27.24C171.237 27.24 171.291 27.3067 171.291 27.44C171.291 27.8133 170.744 28.6267 169.651 29.88C168.584 31.08 167.851 31.68 167.451 31.68C166.331 31.68 165.771 30.4933 165.771 28.12C165.771 27.8267 165.797 27.3867 165.851 26.8C165.904 26.1867 165.984 25.4267 166.091 24.52C165.771 25.1333 165.384 25.8 164.931 26.52C164.504 27.2133 164.024 27.9467 163.491 28.72C162.024 30.8 160.957 31.84 160.291 31.84ZM172.839 33.4C171.586 33.4 170.733 32.8133 170.279 31.64C170.173 31.4 170.119 31.2 170.119 31.04C170.119 30.8533 170.213 30.76 170.399 30.76C170.506 30.76 170.586 30.8267 170.639 30.96C171.013 32.1333 171.693 32.72 172.679 32.72C173.746 32.72 174.279 32.2 174.279 31.16C174.279 30.5733 173.813 29.5733 172.879 28.16C171.946 26.7467 171.479 25.5867 171.479 24.68C171.479 23.48 172.039 22.2667 173.159 21.04C174.279 19.8133 175.426 19.2 176.599 19.2C177.479 19.2 177.919 19.6 177.919 20.4C177.919 20.6667 177.719 21.0667 177.319 21.6C176.946 22.1333 176.653 22.4 176.439 22.4C176.413 22.3733 176.399 22.3467 176.399 22.32C176.399 22.2933 176.506 22.12 176.719 21.8C176.933 21.48 177.039 21.2267 177.039 21.04C177.039 20.8533 176.906 20.76 176.639 20.76C175.786 20.76 174.893 21.1867 173.959 22.04C173.053 22.8667 172.599 23.72 172.599 24.6C172.599 25.4 173.093 26.4533 174.079 27.76C175.093 29.0933 175.599 30.16 175.599 30.96C175.599 31.68 175.319 32.2667 174.759 32.72C174.226 33.1733 173.586 33.4 172.839 33.4Z" fill="white"/>
<path d="M217.26 24.9923H256.26C259.26 23.9923 259.26 18.9923 256.26 17.4923C253.974 16.3495 248.76 16.9923 249.26 21.9923" stroke="#EF272C" stroke-width="2"/>
<line x1="217.26" y1="30.9923" x2="269.01" y2="30.9923" stroke="#EF272C" stroke-width="2"/>
</svg>
